<svg width="0" height="0" class="hidden">
    <symbol xmlns="http://www.w3.org/2000/svg" viewBox="0 0 16 16" id="delete-icon">
        <path d="M0.650409 1.95141C0.291198 1.59221 0.291188 1.00983 0.650386 0.650617C1.00958 0.291407 1.59197 0.291396 1.95118 0.650594L15.3496 14.0485C15.7088 14.4077 15.7088 14.9901 15.3496 15.3493C14.9904 15.7085 14.408 15.7086 14.0488 15.3494L0.650409 1.95141Z" stroke-width="0.5"></path>
        <path d="M0.650836 15.3496C0.291625 14.9904 0.291615 14.408 0.650813 14.0488L14.0488 0.6504C14.408 0.291189 14.9903 0.291179 15.3496 0.650376C15.7088 1.00957 15.7088 1.59196 15.3496 1.95117L1.95163 15.3496C1.59243 15.7088 1.01005 15.7088 0.650836 15.3496Z" stroke-width="0.5"></path>
    </symbol>
    <symbol xmlns="http://www.w3.org/2000/svg" viewBox="0 0 20 20" id="search-icon">
        <path d="M9 17C13.4183 17 17 13.4183 17 9C17 4.58172 13.4183 1 9 1C4.58172 1 1 4.58172 1 9C1 13.4183 4.58172 17 9 17Z" stroke-width="2" stroke-linecap="round" stroke-linejoin="round"></path>
        <path d="M18.9999 19L14.6499 14.65" stroke-width="2" stroke-linecap="round" stroke-linejoin="round"></path>
    </symbol>
    <symbol viewBox="0 0 11 20" fill="none" xmlns="http://www.w3.org/2000/svg" id="chevron">
        <path d="M10 1L1 10L10 19" stroke-width="2" stroke-linecap="round" stroke-linejoin="round"/>
    </symbol>
</svg>
