<svg display="none" xmlns="http://www.w3.org/2000/svg">
  <!-- Plus Icon svg-->
  <symbol id="plus-icon-svg" viewBox="0 0 24 24" xmlns="http://www.w3.org/2000/svg">
    <path
      d="M5.571 3A2.574 2.574 0 0 0 3 5.571V18.43A2.574 2.574 0 0 0 5.571 21H18.43A2.574 2.574 0 0 0 21 18.429V5.57A2.574 2.574 0 0 0 18.429 3H5.57Zm5.465 12.536v-2.572H8.464A.962.962 0 0 1 7.5 12c0-.534.43-.964.964-.964h2.572V8.464c0-.534.43-.964.964-.964s.964.43.964.964v2.572h2.572c.534 0 .964.43.964.964s-.43.964-.964.964h-2.572v2.572c0 .534-.43.964-.964.964a.962.962 0 0 1-.964-.964Z" />
  </symbol>

  <!-- Inbox Icon svg-->
  <symbol id="inbox-icon-svg" viewBox="0 0 24 24" xmlns="http://www.w3.org/2000/svg">
    <path
      d="M7.254 4C6.22 4 5.32 4.67 5.07 5.624l-2.004 7.63c-.046.171-.067.345-.067.52v3.083C3 18.04 4.009 19 5.25 19h13.5c1.241 0 2.25-.96 2.25-2.143v-3.084c0-.174-.021-.348-.067-.518L18.93 5.623C18.68 4.67 17.78 4 16.746 4H7.254Zm0 2.143h9.492l1.688 6.428h-1.8c-.426 0-.816.228-1.006.593l-.503.958c-.19.361-.58.592-1.005.592H9.884c-.426 0-.816-.227-1.006-.592l-.503-.958a1.134 1.134 0 0 0-1.005-.593H5.566l1.688-6.428Z" />
  </symbol>
</svg>
